<svg width="21" height="20" viewBox="0 0 21 20" fill="none" xmlns="http://www.w3.org/2000/svg">
<path d="M9.38698 8.52604C10.9649 6.94813 13.4934 6.90031 15.1289 8.38259L15.2796 8.52604L17.6366 10.883C19.2638 12.5102 19.2638 15.1484 17.6366 16.7755C16.0587 18.3535 13.5302 18.4013 11.8947 16.919L11.7441 16.7755L9.97631 15.0078C9.65081 14.6824 9.65081 14.1547 9.97631 13.8293C10.2767 13.5289 10.7493 13.5058 11.0763 13.76L11.1548 13.8293L12.9226 15.597C13.8989 16.5734 15.4818 16.5734 16.4581 15.597C17.3953 14.6598 17.4328 13.1635 16.5705 12.1815L16.4581 12.0615L14.1011 9.70454C13.1247 8.72821 11.5419 8.72821 10.5656 9.70454C10.2401 10.03 9.71256 10.03 9.38706 9.70454C9.06167 9.37912 9.06162 8.85146 9.38698 8.52604ZM4.08367 3.22271C5.66154 1.64483 8.19008 1.59702 9.82557 3.07926L9.97623 3.22271L11.744 4.99047C12.0694 5.31591 12.0694 5.84355 11.744 6.16899C11.4436 6.46939 10.9709 6.4925 10.644 6.23831L10.5655 6.16899L8.79771 4.40122C7.8214 3.42491 6.23849 3.42491 5.26218 4.40122C4.32492 5.33847 4.28743 6.83478 5.14971 7.81676L5.26218 7.93675L7.6192 10.2938C8.59551 11.2701 10.1785 11.27 11.1547 10.2938C11.4801 9.96829 12.0078 9.96829 12.3332 10.2938C12.6587 10.6192 12.6586 11.1469 12.3332 11.4723C10.7554 13.0501 8.22684 13.098 6.59135 11.6157L6.44069 11.4723L4.08367 9.11529C2.45649 7.48807 2.45649 4.84989 4.08367 3.22271Z" fill="#7659A1"/>
</svg>
