<svg width="21" height="20" viewBox="0 0 21 20" fill="none" xmlns="http://www.w3.org/2000/svg">
<path fill-rule="evenodd" clip-rule="evenodd" d="M14.9048 2.52499C14.2539 1.87412 13.1986 1.87412 12.5477 2.52499L3.95299 11.1197C3.64044 11.4323 3.46484 11.8562 3.46484 12.2982V16.6588C3.46484 17.1237 3.8417 17.5005 4.30651 17.5005L17.6346 17.5C18.0948 17.5 18.4679 17.1269 18.4679 16.6667C18.4679 16.2064 18.0948 15.8333 17.6346 15.8333H11.0246L18.4403 8.41757C19.0911 7.76667 19.0911 6.7114 18.4403 6.06052L14.9048 2.52499ZM8.66754 15.8333L17.2618 7.23903L13.7262 3.7035L5.13151 12.2982V15.8338C6.31018 15.8338 7.48889 15.8333 8.66754 15.8333Z" fill="#08001C"/>
</svg>
