<svg width="21" height="20" viewBox="0 0 21 20" fill="none" xmlns="http://www.w3.org/2000/svg">
<g clip-path="url(#clip0_725_12290)">
<path d="M10.026 5C10.4863 5 10.8594 5.3731 10.8594 5.83333C10.8594 6.29357 10.4863 6.66667 10.026 6.66667H5.02604V15.8333H14.1927V10.8333C14.1927 10.3731 14.5658 10 15.026 10C15.4863 10 15.8594 10.3731 15.8594 10.8333V15.8333C15.8594 16.7538 15.1132 17.5 14.1927 17.5H5.02604C4.10557 17.5 3.35938 16.7538 3.35938 15.8333V6.66667C3.35938 5.74619 4.10557 5 5.02604 5H10.026ZM17.526 2.5C17.9863 2.5 18.3594 2.8731 18.3594 3.33333V7.5C18.3594 7.96023 17.9863 8.33333 17.526 8.33333C17.0658 8.33333 16.6927 7.96023 16.6927 7.5V5.34517L9.78196 12.2559C9.45654 12.5813 8.92889 12.5813 8.60345 12.2559C8.27802 11.9305 8.27802 11.4028 8.60345 11.0774L15.5142 4.16667H13.3594C12.8991 4.16667 12.526 3.79357 12.526 3.33333C12.526 2.8731 12.8991 2.5 13.3594 2.5H17.526Z" fill="#08001C"/>
</g>
<defs>
<clipPath id="clip0_725_12290">
<rect width="20" height="20" fill="white" transform="translate(0.859375)"/>
</clipPath>
</defs>
</svg>
