<svg width="17" height="16" viewBox="0 0 17 16" fill="none" xmlns="http://www.w3.org/2000/svg">
<g clip-path="url(#clip0_725_9516)">
<path d="M8.59245 1.3334C12.2743 1.3334 15.2591 4.31817 15.2591 8.00007C15.2591 11.6819 12.2743 14.6667 8.59245 14.6667C4.91055 14.6667 1.92578 11.6819 1.92578 8.00007C1.92578 4.31817 4.91055 1.3334 8.59245 1.3334ZM8.59245 2.66674C5.64693 2.66674 3.25911 5.05455 3.25911 8.00007C3.25911 10.9456 5.64693 13.3334 8.59245 13.3334C11.538 13.3334 13.9258 10.9456 13.9258 8.00007C13.9258 5.05455 11.538 2.66674 8.59245 2.66674ZM8.59245 10.0001C8.96065 10.0001 9.25911 10.2985 9.25911 10.6667C9.25911 11.0349 8.96065 11.3334 8.59245 11.3334C8.22425 11.3334 7.92578 11.0349 7.92578 10.6667C7.92578 10.2985 8.22425 10.0001 8.59245 10.0001ZM8.59245 4.00007C8.96065 4.00007 9.25911 4.29855 9.25911 4.66674V8.66674C9.25911 9.03494 8.96065 9.3334 8.59245 9.3334C8.22425 9.3334 7.92578 9.03494 7.92578 8.66674V4.66674C7.92578 4.29855 8.22425 4.00007 8.59245 4.00007Z" fill="#F4B840"/>
</g>
<defs>
<clipPath id="clip0_725_9516">
<rect width="16" height="16" fill="white" transform="translate(0.591797)"/>
</clipPath>
</defs>
</svg>
