<svg width="13" height="13" viewBox="0 0 13 13" fill="none" xmlns="http://www.w3.org/2000/svg">
<path d="M6.96875 1.49999C9.73015 1.49999 11.9688 3.73857 11.9688 6.49999C11.9688 9.26139 9.73015 11.5 6.96875 11.5C4.20732 11.5 1.96875 9.26139 1.96875 6.49999C1.96875 3.73857 4.20732 1.49999 6.96875 1.49999ZM6.96875 2.49999C4.75961 2.49999 2.96875 4.29085 2.96875 6.49999C2.96875 8.70914 4.75961 10.5 6.96875 10.5C9.1779 10.5 10.9688 8.70914 10.9688 6.49999C10.9688 4.29085 9.1779 2.49999 6.96875 2.49999ZM8.73645 4.69061C8.9317 4.49535 9.2483 4.49535 9.44355 4.69061C9.62378 4.87085 9.63764 5.15447 9.48514 5.35061L9.44355 5.39772L6.6505 8.19079C6.45104 8.39025 6.13652 8.4045 5.92063 8.23353L5.87266 8.19079L4.4938 6.81194C4.29854 6.61669 4.29854 6.30009 4.4938 6.10484C4.67404 5.92457 4.95766 5.9107 5.1538 6.06324L5.2009 6.10484L6.26155 7.16549L8.73645 4.69061Z" fill="#235F5F"/>
</svg>
