<svg width="20" height="20" viewBox="0 0 20 20" fill="none" xmlns="http://www.w3.org/2000/svg">
<path d="M9.99935 1.66666C14.6017 1.66666 18.3327 5.39762 18.3327 10C18.3327 14.6023 14.6017 18.3333 9.99935 18.3333C5.39697 18.3333 1.66602 14.6023 1.66602 10C1.66602 5.39762 5.39697 1.66666 9.99935 1.66666ZM9.99935 3.33333C6.31745 3.33333 3.33268 6.3181 3.33268 10C3.33268 13.6819 6.31745 16.6667 9.99935 16.6667C13.6813 16.6667 16.666 13.6819 16.666 10C16.666 6.3181 13.6813 3.33333 9.99935 3.33333ZM8.23163 7.05369L9.99935 8.82141L11.7671 7.05367C12.0925 6.72823 12.6202 6.72823 12.9456 7.05367C13.271 7.37911 13.271 7.90675 12.9456 8.23218L11.1778 9.99991L12.9457 11.7677C13.2711 12.0932 13.2711 12.6208 12.9457 12.9462C12.6203 13.2717 12.0926 13.2717 11.7672 12.9462L9.99935 11.1784L8.23155 12.9462C7.90612 13.2717 7.37848 13.2717 7.05304 12.9462C6.72761 12.6208 6.72761 12.0932 7.05304 11.7677L8.82085 9.99991L7.05312 8.2322C6.72768 7.90676 6.72768 7.37913 7.05312 7.05369C7.37856 6.72826 7.90619 6.72826 8.23163 7.05369Z" fill="#DC3545"/>
</svg>
