<svg version="1.0" width="1192.315" height="1609.946" viewBox="0 0 894.236 1207.459" preserveAspectRatio="xMidYMid" xmlns="http://www.w3.org/2000/svg"><path d="M390.018 1.06c-131.6 4.9-253.5 28.9-322.4 63.3-36.2 18.1-57.2 37.4-65.1 59.6-2.3 6.3-2.3 7.4-2.5 47-.1 30.8.2 41.9 1.2 46.5 1.8 8 10 64.1 50.3 346 76.3 533.9 74 517 74.5 537 .6 24.4 2.3 28.6 16.7 41.9 30.4 28.2 106.7 51.1 200.9 60.5 40.4 4 52.7 4.6 103.5 4.6s63.1-.6 103.5-4.6c95.6-9.5 171.9-32.8 202.3-61.7 13.2-12.7 14.6-16.6 15.3-42.7.6-22-1.5-6.6 49.4-360.5 9.9-69 19.8-137.9 22-153 11.7-81.4 42.7-297.2 47.1-327 2.7-19 5.6-37.3 6.3-40.6 1-4.7 1.3-16 1.2-46.5-.1-39.5-.2-40.5-2.5-46.9-6.1-17.2-21.6-34.1-44.1-48.1-83.8-52-267.3-82-457.6-74.8zm136.1 88.9c130.1 8.5 228.7 29 292.2 60.8 16.3 8.2 33.8 19.9 32.3 21.7-.6.7-4.3 3.5-8.3 6.3-46.2 31.8-135.5 56.8-245.7 68.6-53.1 5.7-90.2 7.6-149.5 7.6s-96.3-1.8-149.5-7.6c-110.1-11.8-199.6-36.8-245.7-68.6-4-2.8-7.7-5.6-8.3-6.3-1.5-1.8 16-13.5 32.3-21.7 69.1-34.6 181.5-56.2 323.2-62.2 16.1-.7 111.5.3 127 1.4zm-87.7 257.7c-2.1.2-5.5.2-7.5 0-2.1-.2-.293.707 3.807.707s5.693-.908 3.693-.708zm26 0c-2.1.2-5.7.2-8 0-2.4-.2-.62 1.05 3.78 1.05 4.4 0 6.22-1.25 4.22-1.05z"/></svg>