<svg width="25" height="24" viewBox="0 0 25 24" fill="none" xmlns="http://www.w3.org/2000/svg">
<path d="M12.9844 24C19.6118 24 24.9844 18.6274 24.9844 12C24.9844 5.37258 19.6118 0 12.9844 0C6.35696 0 0.984375 5.37258 0.984375 12C0.984375 18.6274 6.35696 24 12.9844 24Z" fill="#F4B840"/>
<path d="M18.2584 10.515C18.4939 8.943 17.2961 8.09775 15.6596 7.53375L16.1906 5.40375L14.8946 5.08125L14.3771 7.155C14.0366 7.0695 13.6871 6.99 13.3384 6.9105L13.8596 4.82325L12.5636 4.5L12.0326 6.62925C11.7506 6.56475 11.4731 6.50175 11.2046 6.43425L11.2061 6.4275L9.41813 5.98125L9.07313 7.36575C9.07313 7.36575 10.0354 7.58625 10.0151 7.59975C10.5401 7.731 10.6346 8.07825 10.6189 8.35425L10.0144 10.7805C10.0504 10.7895 10.0969 10.803 10.1494 10.8232L10.0121 10.7895L9.16463 14.1885C9.10013 14.3475 8.93738 14.5867 8.56988 14.496C8.58338 14.5147 7.62788 14.2612 7.62788 14.2612L6.98438 15.7448L8.67188 16.1655C8.98538 16.2443 9.29288 16.3267 9.59513 16.404L9.05888 18.558L10.3541 18.8805L10.8851 16.7505C11.2391 16.8457 11.5826 16.9342 11.9186 17.0182L11.3891 19.1392L12.6851 19.4618L13.2214 17.3123C15.4324 17.7308 17.0944 17.562 17.7941 15.5625C18.3581 13.953 17.7664 13.0238 16.6031 12.4185C17.4506 12.2235 18.0881 11.6663 18.2584 10.515ZM15.2959 14.6685C14.8961 16.2788 12.1849 15.408 11.3059 15.1898L12.0184 12.336C12.8974 12.5557 15.7151 12.99 15.2959 14.6685ZM15.6971 10.4918C15.3319 11.9565 13.0759 11.2118 12.3446 11.0295L12.9896 8.442C13.7209 8.62425 16.0781 8.964 15.6971 10.4918Z" fill="white"/>
</svg>
